<?xml version="1.0" encoding="iso-8859-1"?>
<!-- Generator: Adobe Illustrator 18.1.1, SVG Export Plug-In . SVG Version: 6.00 Build 0)  -->
<svg xmlns="http://www.w3.org/2000/svg" xmlns:xlink="http://www.w3.org/1999/xlink" version="1.1" id="Capa_1" x="0px" y="0px" viewBox="0 0 16.786 16.786" style="enable-background:new 0 0 16.786 16.786;" xml:space="preserve" width="512px" height="512px">
<g>
	<g>
		<path d="M0.831,7.242l0.238-0.626C0.923,6.784,0.831,7,0.831,7.242z" fill="#FFFFFF"/>
		<path d="M15.671,6.561l0.284,0.681C15.956,6.976,15.847,6.734,15.671,6.561z" fill="#FFFFFF"/>
		<path d="M14.952,6.285c0.288,0,0.544,0.13,0.72,0.331l-0.031-0.079c0.011,0.009,0.021,0.015,0.031,0.024    l-0.229-0.547l-1.928-5.056C13.515,0.429,13.087,0,12.558,0H9.004H7.735H4.182C3.653,0,3.224,0.429,3.224,0.958L1.298,6.014    L1.069,6.561C1.079,6.551,1.09,6.545,1.1,6.537L1.069,6.616c0.176-0.201,0.432-0.331,0.719-0.331    C1.788,6.285,14.952,6.285,14.952,6.285z M6.368,0.836l0.546-0.3c0.126-0.055,0.293-0.03,0.373,0.059l1.046,1.16l0,0    c0.076,0.086,0.049,0.203-0.085,0.263v0.001L7.635,2.245c-0.25,0.131-0.106,0.389,0.071,0.643L8.6,3.877    c0.43,0.384,0.67,0.566,0.93,0.479l0.532-0.315c0.127-0.056,0.294-0.031,0.375,0.059l1.045,1.16l0,0    c0.077,0.086,0.049,0.204-0.085,0.263v0.001L10.77,5.732C10.365,5.874,8.75,5.92,6.974,3.895C5.26,1.943,6.046,1.033,6.368,0.836z    " fill="#FFFFFF"/>
		<path d="M14.999,7.218H1.788c-0.529,0-0.958,0.429-0.958,0.957v2.795c0,0.528,0.429,0.957,0.958,0.957    h5.903v2.353h-0.85c-0.442,0-0.829,0.229-1.052,0.574H0.983v1.358H5.79c0.224,0.345,0.61,0.574,1.052,0.574h3.057    c0.441,0,0.828-0.229,1.052-0.574h4.807v-1.358h-4.807c-0.224-0.345-0.61-0.574-1.052-0.574h-0.85v-2.353h5.949    c0.528,0,0.957-0.429,0.957-0.957V8.175C15.956,7.647,15.527,7.218,14.999,7.218z M14.156,9.932h-2.633V9.214h2.633V9.932z" fill="#FFFFFF"/>
	</g>
</g>
<g>
</g>
<g>
</g>
<g>
</g>
<g>
</g>
<g>
</g>
<g>
</g>
<g>
</g>
<g>
</g>
<g>
</g>
<g>
</g>
<g>
</g>
<g>
</g>
<g>
</g>
<g>
</g>
<g>
</g>
</svg>
